<svg id="图层_1" data-name="图层 1" xmlns="http://www.w3.org/2000/svg" viewBox="0 0 55.44 7.29"><title>slogan</title><path d="M26.41,2.84c0,.09-.09.16-.28.22a4.05,4.05,0,0,1-.22.88l.57,0a2.53,2.53,0,0,0,.53,0,.57.57,0,0,1,0-.18l0-.25a17,17,0,0,0,.09-1.78l.32.12a3.4,3.4,0,0,0,.34.16c.27.08.41.17.41.28s-.11.19-.32.25a3.32,3.32,0,0,1,0,.37c-.06.46-.11.79-.15,1l2-.09a1,1,0,0,0,.13-.25c.1-.19.2-.34.28-.47l.06.06a6.47,6.47,0,0,0,.6.44c.18.13.28.24.28.34s-.15.1-.38.1h-.81q-1.12,0-2.16.12a4.4,4.4,0,0,1-.25.75l.79,0h.46l.16-.25A1.18,1.18,0,0,0,29,4.34c.16.13.34.25.53.38s.31.27.31.31a.19.19,0,0,1-.12.16l-.1,0a.33.33,0,0,0-.12.06,5.81,5.81,0,0,1-.78,1.53,5,5,0,0,0,2.65.88c.13,0,.18,0,.16.09s0,.08-.13.13a2.07,2.07,0,0,0-.78.4,1.12,1.12,0,0,0-.22.16l-.09.06a.1.1,0,0,1-.09.06.77.77,0,0,1-.57-.18,7.48,7.48,0,0,1-1.34-1.07A4.6,4.6,0,0,1,26,8.53c-.19.06-.28.06-.28,0s.08-.09.25-.16a5.65,5.65,0,0,0,1.93-1.53,5.24,5.24,0,0,1-.72-1.22,5.28,5.28,0,0,1-2.62,2.72c-.13.09-.21.1-.25,0s.05-.08.16-.18a6.89,6.89,0,0,0,1.81-2.13,6.22,6.22,0,0,0,.65-1.94,3.26,3.26,0,0,0-.46,0,2.91,2.91,0,0,0-.5,0l-.1.09a.92.92,0,0,1-.25.22A1.32,1.32,0,0,1,24.94,4a1,1,0,0,1,.29-.28,6.43,6.43,0,0,0,.25-1.41,1.88,1.88,0,0,1,.68.28C26.31,2.69,26.39,2.76,26.41,2.84ZM28.73,5a3.89,3.89,0,0,1-.63,0l-.69,0-.09.25a3.89,3.89,0,0,0,.87,1.1A3.77,3.77,0,0,0,28.73,5Zm1-2.28c.07.37-.08.58-.43.62a.36.36,0,0,1-.35-.28,1.72,1.72,0,0,0-.15-.56.26.26,0,0,0-.07-.12.29.29,0,0,0-.06-.1l-.06-.06q-.09-.06-.06-.09c0-.05.09-.06.22,0l.25,0c-.09,0-.07,0,.06,0A1,1,0,0,1,29.69,2.75Z" transform="translate(-24.32 -1.41)"/><path d="M39,2.47c0,.06-.1.14-.28.25V3c.16.15.25.25.25.31a.24.24,0,0,1-.1.1h-.15l-.6,0q-.34,0-1.53.09l-.62,0c0,.59-.06,1.1-.1,1.53a6.51,6.51,0,0,1-.5,2,2.28,2.28,0,0,1-.65.91c-.11.1-.19.15-.25.13s0-.12.09-.29a4.35,4.35,0,0,0,.41-1,7.1,7.1,0,0,0,.28-1.62q.06-.78.06-1.53a.81.81,0,0,1-.28,0l-.28,0h-.22v.81a2.15,2.15,0,0,1,.31-.22l.06-.06.13-.09c.1-.09.17-.1.19,0s0,.09-.07.15a6.62,6.62,0,0,1-.62.63V7.34a1.3,1.3,0,0,1,0,.38,1,1,0,0,1-.22.31c-.27.25-.48.36-.63.34a.13.13,0,0,1-.15-.15.33.33,0,0,0,0-.1.17.17,0,0,0,0-.12,1.3,1.3,0,0,0-.22-.31l-.13-.16q-.09-.09-.06-.12s.09,0,.22,0h.37c.15,0,.22-.06.22-.18V6.34q0-.37,0-.75l-.15.16-.32.31a3.09,3.09,0,0,0-.37.38l0,.06L33,6.56a.22.22,0,0,1-.16.1s-.15-.09-.31-.25l0-.07-.25-.25,1-.59L33.91,5V3.84h-.28l-.31,0L32.66,4l-.18-.34c.18,0,.44,0,.78,0h.15l.5-.06V2.72c0-.09,0-.28,0-.6a3.43,3.43,0,0,1,0-.4,2.35,2.35,0,0,1,.59.22c.25.08.38.16.38.25a.66.66,0,0,1-.25.28V3.53h.06l.25-.44a1,1,0,0,0,.16.13l.31.25V3c0-.08,0-.22,0-.41q0-.52-.06-.78a3.87,3.87,0,0,1,.56.25,3.37,3.37,0,0,1,.41.22L38,2.19l.31-.41.12.09.38.29C39,2.28,39,2.38,39,2.47Zm.37,4.15c0,.07-.06.15-.18.25s0,.22,0,.6v.47c0,.16-.14.3-.41.4-.1.07-.18.08-.22,0s-.07,0-.09-.09,0,0,0,0,0-.16,0-.41L36.76,8c-.11.19-.21.29-.32.31a.88.88,0,0,1-.56-.37s0-.09.13-.19a.44.44,0,0,1,.06-.1V6.28a1.79,1.79,0,0,1,.5.19c.23.08.32.15.28.22s0,.12-.16.18v.85l.63,0V5.78h-.44a.58.58,0,0,1-.22.31,1.76,1.76,0,0,1-.59-.37.64.64,0,0,1,.22-.31V4.78q0-.25,0-.72c.14.06.31.13.5.19s.26.12.28.19-.06.13-.19.22v.87h.47V4.34q0-.34,0-.75a4.07,4.07,0,0,1,.53.19c.23.06.33.14.31.22s-.06.11-.19.22V5.5l.44,0V4.69q0-.37,0-.75a2.34,2.34,0,0,1,.53.18c.15,0,.22.06.22.1s.13.09.13.15-.07.12-.19.22v.85a2.66,2.66,0,0,1,0,.28.3.3,0,0,1-.16.28.61.61,0,0,1-.31.16h-.12c-.07,0-.1-.07-.1-.25V5.69l-.44,0V7.66l.63,0v-1a3.43,3.43,0,0,1,0-.4,2.41,2.41,0,0,1,.59.19l.19.09Q39.41,6.56,39.41,6.62ZM38,2.44c-.15,0-.45,0-.91.06L36,2.56v.75l2-.09c0-.13,0-.29,0-.5Z" transform="translate(-24.32 -1.41)"/><path d="M45.32,6.44c0,.06-.12.09-.34.09-.9,0-2,.08-3.29.19H41.6l-.84.12a2.74,2.74,0,0,1-.19-.34l.62,0h.5l.91-.06,1.5-.1a3.24,3.24,0,0,1,.28-.47l.1-.15a3.48,3.48,0,0,1,.78.59C45.32,6.34,45.34,6.39,45.32,6.44ZM47.1,2.81C47.1,3,47,3,46.82,3l-.44,0a3.65,3.65,0,0,0-.59.16l-.31.12a.07.07,0,0,1,0-.06,1.28,1.28,0,0,1,.1-.22.67.67,0,0,1,.06-.16c.06-.12.11-.23.16-.31l-3.66.19a1.56,1.56,0,0,1-.22.87.56.56,0,0,1-.37.35.34.34,0,0,1-.32-.1.47.47,0,0,1,0-.72,1.78,1.78,0,0,1,.32-.28,1.73,1.73,0,0,0,.31-.75V2a.28.28,0,0,0,0-.13q.06-.09.09-.09s.1.09.16.28a.89.89,0,0,0,0,.19.57.57,0,0,0,0,.22L43,2.41c1.08-.05,2-.1,2.78-.16A.91.91,0,0,1,46,2a1.46,1.46,0,0,0,.18-.22l.69.66A.57.57,0,0,1,47.1,2.81Zm-1,4.53a3.13,3.13,0,0,1-.31.72,1.19,1.19,0,0,1-.5.5.38.38,0,0,1-.19.06c-.08,0-.16,0-.22-.15l0-.06a.53.53,0,0,0-.13-.16,1,1,0,0,0-.46-.5C44,7.62,44,7.54,44,7.5s.11,0,.34,0h.16l.31,0,.22,0h.09c.15,0,.27-.29.38-.81a6.83,6.83,0,0,0,.18-1.47c-.37,0-1.28.09-2.72.15a1.78,1.78,0,0,1-.31.38A1,1,0,0,1,42,5.28.46.46,0,0,1,42.23,5a12.39,12.39,0,0,0,.34-2l.19.06.47.16q.15,0,.18.09a.12.12,0,0,1,.1.13s-.1.11-.28.21L43.16,4l2.41-.13.37-.65a5.53,5.53,0,0,1,.57.4,1.06,1.06,0,0,1,.18.13c.13.08.18.16.16.22a.1.1,0,0,1-.06.09s0,0,0,0h-.19c-.23,0-.56,0-1,0-.11,0-.78.07-2,.13l-.44,0-.19.87.44,0L45.63,5a2,2,0,0,0,.28-.47c.07,0,.19.14.38.28a1.83,1.83,0,0,1,.22.16c.14.1.22.19.22.25s-.11.13-.32.22A11.55,11.55,0,0,1,46.07,7.34Z" transform="translate(-24.32 -1.41)"/><path d="M51.51,2.25c0,.08-.11.16-.32.22s-.25.4-.43.72c0-.07,0,0-.13.18,0,1,0,1.85,0,2.66v.75q0,.38,0,.69a1,1,0,0,1-.34.62,1,1,0,0,1-.25.19.52.52,0,0,1-.31.06s-.07-.08-.07-.25a1.71,1.71,0,0,0,.1-.43A14.61,14.61,0,0,0,49.94,6C50,5.46,50,4.82,50,4.09a6.34,6.34,0,0,1-1.72,1.38c-.09.06-.14.07-.16,0s0-.06,0-.13,0,.06,0,0a8.68,8.68,0,0,0,2-2.62,4.26,4.26,0,0,0,.41-1.06,2.28,2.28,0,0,0,.31.15l.19.1A1.21,1.21,0,0,1,51.51,2.25Zm3.62,1h-.34l-.47,0-.53,0-1,.09a.53.53,0,0,1,.18.07l.19.06c.19.06.28.11.28.16a.12.12,0,0,1-.06.15,1.59,1.59,0,0,1-.13.13v.78l.72-.06c.07-.11.18-.29.35-.54l.18.13a1.77,1.77,0,0,0,.29.19.64.64,0,0,1,.15.12.53.53,0,0,1,.13.1.29.29,0,0,1,.06.15.24.24,0,0,1-.13.1s0,0,0,0h-.25l-.56,0H54l-.79,0V6.34l.57,0a2.31,2.31,0,0,1,.37,0l.35-.53a1,1,0,0,1,.28.19l.18.12a.09.09,0,0,1,.07,0,1,1,0,0,1,.18.19.22.22,0,0,1,.1.16s-.07.06-.16.06l-.25,0h-.69l-1,.09c0,.38,0,.82,0,1.32a.77.77,0,0,1-.22.53,1.51,1.51,0,0,1-.28.15c-.17.09-.27.1-.32,0v-.5a2.11,2.11,0,0,0,0-.32c0-.52,0-1,0-1.53,0-.85,0-1.52,0-2,0-.06,0-.2,0-.4v-.5h-.1c-.08.12-.17.26-.28.4A.71.71,0,0,1,52,4l-.28.34-.12.13a1.47,1.47,0,0,1-.44.37.17.17,0,0,1-.15.1s0-.11,0-.19a5.43,5.43,0,0,0,.43-.66c.13-.23.25-.48.38-.75s.25-.72.37-1.15A.63.63,0,0,1,52.26,2c0-.23.08-.43.12-.59.21.12.41.25.59.37s.29.22.29.28a.14.14,0,0,1-.1.13.43.43,0,0,1-.22.12,4.23,4.23,0,0,1-.37.78L54.29,3a2.57,2.57,0,0,1,.18-.28l.22-.31a.11.11,0,0,1,.07,0,3.92,3.92,0,0,1,.56.37c.17.15.25.24.25.28s-.06.11-.19.13Z" transform="translate(-24.32 -1.41)"/><path d="M59.82,3.53c0,.06-.11.16-.31.28,0,.19,0,.72,0,1.6,0,.27,0,.46,0,.59a2.6,2.6,0,0,1,0,.5.63.63,0,0,1,0,.37.64.64,0,0,1-.25.32.83.83,0,0,1-.38.12c-.06,0-.09-.09-.09-.22V6.62l-1.16.07v.47a1,1,0,0,1,0,.28c0,.1-.11.2-.28.31a.61.61,0,0,1-.31.12L57,7.75V7.66l0-.13V7.16a3.65,3.65,0,0,0,0-.38q0-1.22,0-2.28,0-.81,0-1.59a.72.72,0,0,0,.22.09l.21.09.22.16a.31.31,0,0,1,.13.06h.09a3.34,3.34,0,0,0,.19-.87c0-.09,0-.24,0-.47a2.05,2.05,0,0,0,0-.28l.19.09a4.16,4.16,0,0,1,.5.25c.12,0,.19.08.19.13a.18.18,0,0,1,.09.15c0,.06-.09.13-.34.19a.93.93,0,0,0-.1.16,4.73,4.73,0,0,1-.37.62h.5l.28-.41a.44.44,0,0,0,.12.1,2.54,2.54,0,0,1,.38.28l.09.09.07,0s0,0,0,0A.17.17,0,0,1,59.82,3.53Zm-1,0-.72,0-.44,0V4.84l.35,0h.12l.28,0,.19,0a.72.72,0,0,1,.13.25s-.08.06-.22.06l-.44,0h-.41V6.41l1.16-.07Zm4.31-.09c0,.06-.1.14-.31.25v.5q0,.46,0,.78a9.36,9.36,0,0,1-.13,1.65A3.6,3.6,0,0,1,62.22,8a1.72,1.72,0,0,1-.46.47.64.64,0,0,1-.32.12c-.1,0-.17-.06-.22-.18l-.09-.28a1.46,1.46,0,0,0-.34-.44l-.16-.13q-.09-.09-.06-.12c0-.06.11-.08.34,0l.53.06h.16c.17-.11.31-.48.44-1.13a24.37,24.37,0,0,0,.09-2.5v-.4l-1.47.06s-.06.12-.12.22a2.14,2.14,0,0,1-.13.22,2.6,2.6,0,0,1-.56.69c-.06.06-.1.08-.13.06s0-.06,0-.13a7.22,7.22,0,0,0,.41-1.12,1.16,1.16,0,0,1,0-.16,7.7,7.7,0,0,0,.19-.9s0-.11,0-.25.07-.46.09-.63l.38.19a1.34,1.34,0,0,0,.25.12c.21.13.31.22.31.28a.18.18,0,0,1-.09.16.09.09,0,0,0-.06,0,.41.41,0,0,1-.16,0c-.06.19-.16.44-.28.75a.85.85,0,0,1-.06.19l.75,0,.53,0a.65.65,0,0,0,.09-.13l.28-.37.19.12a3.78,3.78,0,0,0,.31.25C63.08,3.26,63.16,3.37,63.16,3.44ZM61.54,5.53a.57.57,0,0,1-.1.34.36.36,0,0,1-.31.16.32.32,0,0,1-.34-.16.72.72,0,0,1-.07-.37,1.34,1.34,0,0,0-.21-.69c0-.06,0-.12-.13-.19a.12.12,0,0,0,0-.09l0-.06s.1,0,.19,0l.09,0,.19.09A1,1,0,0,1,61.54,5.53Z" transform="translate(-24.32 -1.41)"/><path d="M66.66,6.06v.1a.49.49,0,0,0,0,.15,2.1,2.1,0,0,1-.16.5,1.79,1.79,0,0,1-.4.66,1,1,0,0,1-.6.31.75.75,0,0,1-.31-.06A.4.4,0,0,1,65,7.41.63.63,0,0,1,65.13,7a.67.67,0,0,1,.28-.19l.28-.12.47-.29.1-.12L66.44,6l.07-.06c0-.07.07-.09.09-.07S66.66,5.94,66.66,6.06ZM69.6,2.44a11.14,11.14,0,0,1-1.41.34c-.5.06-1,.12-1.47.16a.33.33,0,0,1-.15,0c0,.56-.12,1.24-.22,2l1.41-.06V4.25a4.79,4.79,0,0,0,0-.56V3.25a.09.09,0,0,1,.07,0,2.82,2.82,0,0,1,.59.16c.23.08.34.16.34.25s-.08.14-.25.25v1l1.19-.07.41-.68a4.58,4.58,0,0,1,.69.5c.16.12.24.22.21.31s-.12.09-.37.09c-.69,0-1.4.05-2.13.1,0,1.06,0,1.65,0,1.78v.9a.72.72,0,0,1-.44.66c-.17.1-.28.13-.35.09a.08.08,0,0,1-.09-.09,0,0,0,0,0,0,0,.19.19,0,0,1,0-.13A1.12,1.12,0,0,0,67.29,8,.88.88,0,0,0,67,7.75c-.13-.11-.18-.18-.16-.22s.12,0,.28,0h.1l.18,0a.33.33,0,0,0,.25,0s.07-.1.07-.25V5.19l-.66,0-.69.06a2.73,2.73,0,0,1-.34.38,3.35,3.35,0,0,1-.44-.19,4,4,0,0,1-.28-.31L65.47,5l.13-.16a8.37,8.37,0,0,0,.25-2,1,1,0,0,0,0-.34V2.34l.81.35a.21.21,0,0,0,.13,0,9.64,9.64,0,0,0,1.59-.57,2.76,2.76,0,0,0,.81-.53,2.05,2.05,0,0,1,.53.41c.21.16.32.28.32.34S69.89,2.48,69.6,2.44Zm1.5,4.4a.94.94,0,0,1,0,.28.41.41,0,0,1-.19.32.45.45,0,0,1-.25.12.43.43,0,0,1-.31-.12.82.82,0,0,1-.22-.38.17.17,0,0,1,0-.12.88.88,0,0,0-.16-.28,1.39,1.39,0,0,0-.37-.5c0-.07-.12-.14-.28-.22s-.13-.12-.13-.16.07-.06.22-.06a2.61,2.61,0,0,1,1.22.44A1,1,0,0,1,71.1,6.84Z" transform="translate(-24.32 -1.41)"/><path d="M79.76,7.44c0,.06-.1.15-.35.28a2.41,2.41,0,0,0-.56.53.69.69,0,0,1-.13.16.47.47,0,0,0-.09.12.4.4,0,0,1-.31,0A12.07,12.07,0,0,1,76,8a7.62,7.62,0,0,1-2.66-1.6.44.44,0,0,0-.06.1,4.36,4.36,0,0,1-.41.72,3.35,3.35,0,0,1-.59.62c-.08.06-.15.08-.19.06s0-.06,0-.12a.09.09,0,0,0,0-.06c.15-.25.28-.51.41-.78a5.29,5.29,0,0,0,.31-1.13A3.47,3.47,0,0,0,73,4.87a2.93,2.93,0,0,0,.34.22l.19.1c.19.12.28.22.28.28s-.07.12-.22.19-.09.27-.16.5a5.62,5.62,0,0,0,.5.34V4.34l-.37,0a1.25,1.25,0,0,0-.38,0,4.28,4.28,0,0,0-.87.09l-.16-.34H73l.87,0V3.25l-.22,0h-.15l-.25,0-.25,0a.16.16,0,0,0,0-.09L72.88,3h.69l.31,0V2.41a2.11,2.11,0,0,1,0-.32V1.56a2.51,2.51,0,0,1,.47.19c.25.1.37.19.37.25s-.06.13-.18.22V3h.06s0-.05.06-.1a2.79,2.79,0,0,0,.16-.28,1.62,1.62,0,0,1,.34.32c.13.08.19.15.19.21s-.1.07-.22.07l-.47,0h-.12v.87l.28,0s0,0,.06-.06.09-.17.22-.38a.22.22,0,0,0,.09.07c.13.1.25.22.38.34V2.47a1.79,1.79,0,0,0-.53.06l-.13-.28H75l.66,0c.11,0,.57,0,1.41-.1a2.39,2.39,0,0,1,.18-.34l.1-.16.5.35c.17.1.23.19.19.25s-.12.09-.35.09a3.63,3.63,0,0,1-.5,0l0,2.63v.12A.25.25,0,0,0,77.38,5c.15,0,.22,0,.22.06s-.06.1-.19.16l-.09,0a.4.4,0,0,0-.13.06c0,.25,0,.56,0,.91a1,1,0,0,1-.21.69.56.56,0,0,1-.41.18A.12.12,0,0,1,76.54,7c0-.31,0-.62,0-.91V5.66a9.71,9.71,0,0,0-1.06.59l-.16.12s-.11,0-.22-.15A.91.91,0,0,0,74.94,6a2.11,2.11,0,0,0-.15-.19l.75-.19V4.28a.38.38,0,0,1-.16,0h-.84l-.28,0a.8.8,0,0,1,.31.1c.12,0,.19.09.19.15s0,.13-.16.19v.53h.09s0,0,.07-.09l.15-.31a1.78,1.78,0,0,1,.38.31c.12.1.17.19.15.25s-.1.06-.25.06h-.34l-.25,0V6.78a4.78,4.78,0,0,0,1.19.41,11.33,11.33,0,0,0,2.37.25,11.1,11.1,0,0,0,1.28-.07h.22a.07.07,0,0,1,.06,0S79.76,7.42,79.76,7.44Zm-3.66-2a3.24,3.24,0,0,0,.47-.16,1.91,1.91,0,0,1,0-.28V2.41l-.53,0v.81a.74.74,0,0,0,.37-.06c.07.1.09.17.07.22l-.16,0h-.28v.81a.74.74,0,0,0,.37-.06c.07.1.09.17.07.22l-.16,0h-.28ZM79.32,6a.58.58,0,0,1-.16.5.38.38,0,0,1-.28.09c-.1,0-.18-.09-.22-.28-.12-.37-.23-.65-.31-.84a3.9,3.9,0,0,1-.91,1.12.24.24,0,0,1-.18.1s0-.07,0-.13,0,.05,0,0A6.39,6.39,0,0,0,78,4.91,6.88,6.88,0,0,0,77.41,4c-.06-.09-.08-.15-.06-.19s.06,0,.12,0a3.7,3.7,0,0,1,.69.56,9.72,9.72,0,0,0,.16-1.25,1.55,1.55,0,0,1-.47.07l-.38.09A2.12,2.12,0,0,0,77.32,3a2.67,2.67,0,0,1,.47,0,2.3,2.3,0,0,1,.5-.1l.22-.4.43.31.1.09c.12.11.17.18.15.22a.46.46,0,0,1-.25.22,6.27,6.27,0,0,1-.34,1.53,1.48,1.48,0,0,1,.41.47A1.49,1.49,0,0,1,79.32,6Z" transform="translate(-24.32 -1.41)"/></svg>